# xmcd
# 
# Track frame offsets:
#     150
#     15975
#     35136
#     48710
#     63228
#     79427
#     95516
#     110973
#     126465
#     141649
#     152927
#     164857
#     180102
#     195925
#     207336
#     224538
#     242007
#     262301
#     279544
#     292344
#     310980
#     318410
#     328628
#     343089
# 
# Disc length: 4814
# 
# Revision: 0
# Processed by: cddbd v1.5.2PL0 Copyright (c) Steve Scherf et al.
# Submitted via: BonkEnc v1.0beta4
# 
DISCID=8e12cc18
DTITLE=Pacifik - 30 let CD2
DYEAR=2001
DGENRE=Country
TTITLE0=Tulacky blues
TTITLE1=Dzinova laska
TTITLE2=Kruta valka
TTITLE3=Velrybarska vyprava
TTITLE4=Kovbouv narek
TTITLE5=Zlaty udoli
TTITLE6=Kalendar
TTITLE7=Ztraceny trate
TTITLE8=Srdce mam kovboje
TTITLE9=Boty tlaci nas
TTITLE10=Blativa cesta
TTITLE11=Bonanza
TTITLE12=Karlinsky nabrezi
TTITLE13=Dal, dal, dal
TTITLE14=Pomoz mi, bracho
TTITLE15=Krysar a kral
TTITLE16=Maly velky muz
TTITLE17=R A F
TTITLE18=Vlak do zeme blues
TTITLE19=Zahrajte mistre moje tango
TTITLE20=Kastrovali kocoura
TTITLE21=Tvuj cas
TTITLE22=Drahousek
TTITLE23=Ranec plnej pisni
EXTD=
EXTT0=
EXTT1=
EXTT2=
EXTT3=
EXTT4=
EXTT5=
EXTT6=
EXTT7=
EXTT8=
EXTT9=
EXTT10=
EXTT11=
EXTT12=
EXTT13=
EXTT14=
EXTT15=
EXTT16=
EXTT17=
EXTT18=
EXTT19=
EXTT20=
EXTT21=
EXTT22=
EXTT23=
PLAYORDER=
